<svg xmlns="http://www.w3.org/2000/svg" xmlns:xlink="http://www.w3.org/1999/xlink" width="16" height="16" preserveAspectRatio="xMidYMid meet" viewBox="0 0 16 16" style="-ms-transform: rotate(360deg); -webkit-transform: rotate(360deg); transform: rotate(360deg);"><g fill="white"><path d="M6.552 6.712c-.456 0-.816.4-.816.888s.368.888.816.888c.456 0 .816-.4.816-.888c.008-.488-.36-.888-.816-.888zm2.92 0c-.456 0-.816.4-.816.888s.368.888.816.888c.456 0 .816-.4.816-.888s-.36-.888-.816-.888z"/><path d="M13.36 0H2.64C1.736 0 1 .736 1 1.648v10.816c0 .912.736 1.648 1.64 1.648h9.072l-.424-1.48l1.024.952l.968.896L15 16V1.648C15 .736 14.264 0 13.36 0zm-3.088 10.448s-.288-.344-.528-.648c1.048-.296 1.448-.952 1.448-.952c-.328.216-.64.368-.92.472c-.4.168-.784.28-1.16.344a5.604 5.604 0 0 1-2.072-.008a6.716 6.716 0 0 1-1.176-.344a4.688 4.688 0 0 1-.584-.272c-.024-.016-.048-.024-.072-.04c-.016-.008-.024-.016-.032-.024c-.144-.08-.224-.136-.224-.136s.384.64 1.4.944c-.24.304-.536.664-.536.664c-1.768-.056-2.44-1.216-2.44-1.216c0-2.576 1.152-4.664 1.152-4.664c1.152-.864 2.248-.84 2.248-.84l.08.096c-1.44.416-2.104 1.048-2.104 1.048s.176-.096.472-.232c.856-.376 1.536-.48 1.816-.504c.048-.008.088-.016.136-.016a6.521 6.521 0 0 1 4.024.752s-.632-.6-1.992-1.016l.112-.128s1.096-.024 2.248.84c0 0 1.152 2.088 1.152 4.664c0 0-.68 1.16-2.448 1.216z"/></g><rect x="0" y="0" width="16" height="16" fill="rgba(0, 0, 0, 0)" /></svg>