<svg width="512" height="512" viewBox="0 0 512 512" fill="none" xmlns="http://www.w3.org/2000/svg">
<g clip-path="url(#clip0)">
<rect width="512" height="512" rx="50" fill="white"/>
<path d="M316.123 255.5C316.123 288.43 289.43 315.123 256.5 315.123C223.57 315.123 196.877 288.43 196.877 255.5C196.877 222.57 223.57 195.877 256.5 195.877C289.43 195.877 316.123 222.57 316.123 255.5Z" fill="black"/>
<path d="M395.937 150.009C393.071 142.243 388.499 135.213 382.557 129.443C376.787 123.501 369.762 118.929 361.991 116.063C355.688 113.615 346.22 110.701 328.781 109.907C309.915 109.047 304.259 108.862 256.5 108.862C208.736 108.862 203.08 109.042 184.219 109.903C166.78 110.701 157.307 113.615 151.009 116.063C143.238 118.929 136.208 123.501 130.443 129.443C124.501 135.213 119.929 142.238 117.058 150.009C114.61 156.312 111.696 165.785 110.903 183.224C110.042 202.084 109.857 207.741 109.857 255.505C109.857 303.264 110.042 308.92 110.903 327.785C111.696 345.224 114.61 354.693 117.058 360.995C119.929 368.767 124.497 375.792 130.438 381.562C136.208 387.503 143.233 392.076 151.005 394.942C157.307 397.395 166.78 400.308 184.219 401.102C203.08 401.962 208.731 402.143 256.495 402.143C304.264 402.143 309.92 401.962 328.776 401.102C346.215 400.308 355.688 397.395 361.991 394.942C377.59 388.925 389.92 376.595 395.937 360.995C398.385 354.693 401.299 345.224 402.097 327.785C402.958 308.92 403.138 303.264 403.138 255.505C403.138 207.741 402.958 202.084 402.097 183.224C401.304 165.785 398.39 156.312 395.937 150.009V150.009ZM256.5 347.349C205.77 347.349 164.646 306.23 164.646 255.5C164.646 204.77 205.77 163.651 256.5 163.651C307.225 163.651 348.349 204.77 348.349 255.5C348.349 306.23 307.225 347.349 256.5 347.349ZM351.98 181.485C340.126 181.485 330.515 171.874 330.515 160.019C330.515 148.165 340.126 138.554 351.98 138.554C363.835 138.554 373.446 148.165 373.446 160.019C373.441 171.874 363.835 181.485 351.98 181.485Z" fill="black"/>
<path d="M256.5 -56C84.4896 -56 -55 83.4896 -55 255.5C-55 427.51 84.4896 567 256.5 567C428.51 567 568 427.51 568 255.5C568 83.4896 428.51 -56 256.5 -56ZM434.29 329.245C433.425 348.286 430.397 361.285 425.977 372.664C416.685 396.691 397.691 415.685 373.664 424.977C362.29 429.397 349.286 432.42 330.249 433.29C311.175 434.16 305.082 434.369 256.505 434.369C207.923 434.369 201.834 434.16 182.755 433.29C163.719 432.42 150.715 429.397 139.341 424.977C127.401 420.485 116.592 413.446 107.656 404.344C98.5588 395.413 91.5195 384.599 87.0278 372.664C82.6074 361.29 79.5796 348.286 78.7146 329.249C77.8352 310.17 77.6309 304.077 77.6309 255.5C77.6309 206.923 77.8352 200.83 78.7098 181.755C79.5749 162.714 82.5979 149.715 87.0183 138.336C91.5099 126.401 98.5541 115.587 107.656 106.656C116.587 97.5541 127.401 90.5147 139.336 86.023C150.715 81.6026 163.714 78.5796 182.755 77.7098C201.83 76.84 207.923 76.6309 256.5 76.6309C305.077 76.6309 311.17 76.84 330.245 77.7146C349.286 78.5796 362.285 81.6026 373.664 86.0183C385.599 90.5099 396.413 97.5541 405.348 106.656C414.446 115.592 421.49 126.401 425.977 138.336C430.402 149.715 433.425 162.714 434.295 181.755C435.165 200.83 435.369 206.923 435.369 255.5C435.369 304.077 435.165 310.17 434.29 329.245V329.245Z" fill="white"/>
</g>
<defs>
<clipPath id="clip0">
<rect width="512" height="512" rx="50" fill="white"/>
</clipPath>
</defs>
</svg>
